# xmcd
#
# Track frame offsets:
#	150
#	14700
#	24457
#	41669
#	54021
#	66475
#	76637
#	89527
#	107394
#	119070
#	132338
#	144254
#
# Disc length: 2083 seconds
#
# Revision: 1
# Processed by: cddbd v1.5.1PL2 Copyright (c) Steve Scherf et al.
# Submitted via: audiograbber 1.83.01
#
DISCID=9c08210c
DTITLE=Jeannie C. Riley - Harper Valley P.T.A.
DYEAR=2004
DGENRE=Country
TTITLE0=Harper Valley P.T.A.
TTITLE1=The Girl Most Likely
TTITLE2=Oh, Singer
TTITLE3=There Was A Time
TTITLE4=Good Enough To Be Your Wife
TTITLE5=Things Go Better With Love
TTITLE6=Roses And Thorns
TTITLE7=The Rib
TTITLE8=Before The Next Teardrop Falls
TTITLE9=Games People Play
TTITLE10=The Back Side Of Dallas
TTITLE11=Country Girl
EXTD=
EXTT0=
EXTT1=
EXTT2=
EXTT3=
EXTT4=
EXTT5=
EXTT6=
EXTT7=
EXTT8=
EXTT9=
EXTT10=
EXTT11=
PLAYORDER=
